<svg width="190" height="126" viewBox="0 0 234 126" fill="none" xmlns="http://www.w3.org/2000/svg">
<path fill-rule="evenodd" clip-rule="evenodd" d="M100.87 19.3947C105.674 16.669 107.358 10.5655 104.633 5.76213C101.907 0.958726 95.8034 -0.725623 91 2.00003L5.99998 50.2326C1.91129 52.5527 -0.00930202 57.4074 1.38548 61.8969C2.78026 66.3863 7.11377 69.298 11.7973 68.8927L58.9166 64.8152L49.3532 86.4583C47.121 91.51 49.4067 97.4147 54.4583 99.6469C59.51 101.879 65.4147 99.5934 67.6469 94.5417L84.0424 57.4367C85.4711 54.2035 85.0867 50.4563 83.0313 47.5804C80.976 44.7046 77.5551 43.1275 74.0335 43.4323L55.7156 45.0174L100.87 19.3947Z" fill="#63D1B4"/>
<path d="M74.9312 58.1271L81.1889 57.134C82.4764 56.9783 83.3113 57.186 83.6935 57.7572C84.002 58.1699 84.2259 58.8148 84.3651 59.6918L85.6064 67.5139C85.7268 68.2724 85.5097 69.048 84.9551 69.8408C83.2913 72.2189 80.4683 73.724 76.4861 74.356C72.9543 74.9165 69.6741 74.0762 66.6454 71.8352C63.6129 69.5705 61.7977 66.5538 61.1996 62.7849C60.6014 59.0161 61.4304 55.6648 63.6864 52.7309C65.9387 49.7733 68.8663 48.0086 72.4692 47.4369C75.2662 46.993 78.0559 47.498 80.8381 48.9519C81.5533 49.3244 81.958 49.8069 82.052 50.3995C82.1423 50.9684 81.975 51.6753 81.5502 52.5204C80.8252 53.9233 80.0834 54.685 79.3249 54.8054C78.8745 54.8769 78.1008 54.6716 77.0037 54.1896C75.9028 53.6839 74.665 53.5401 73.2902 53.7583C71.4887 54.0442 69.9903 54.9381 68.7949 56.44C67.5958 57.9183 67.1599 59.6885 67.4872 61.7507C67.8107 63.7892 68.7982 65.4185 70.4499 66.6387C72.0978 67.8352 73.8225 68.2905 75.624 68.0046C76.9276 67.7977 78.0671 67.3982 79.0423 66.806L78.4273 62.9305L75.6185 63.3763C74.8836 63.4929 74.3471 63.4808 74.0089 63.3401C73.6707 63.1994 73.4259 62.9588 73.2747 62.6183C73.1197 62.2541 72.9933 61.7638 72.8955 61.1475C72.7939 60.5075 72.7604 59.9904 72.7951 59.5961C72.8534 59.198 73.0135 58.9053 73.2754 58.7179C73.6682 58.4369 74.2201 58.24 74.9312 58.1271ZM102.272 44.1652C102.449 43.7483 102.751 43.4331 103.179 43.2194C103.607 43.0057 104.153 42.8462 104.816 42.7408C105.504 42.6318 106.058 42.6045 106.48 42.6591C106.902 42.7136 107.232 42.8069 107.472 42.939C107.712 43.0711 107.905 43.2955 108.053 43.6123C108.259 43.9927 108.428 44.5977 108.56 45.4273L110.264 56.165C110.76 59.2938 110.24 62.2924 108.702 65.1609C107.946 66.5202 106.881 67.6976 105.508 68.6931C104.132 69.6649 102.531 70.2956 100.706 70.5853C98.9042 70.8712 97.1966 70.7533 95.5829 70.2318C93.993 69.7065 92.638 68.901 91.5179 67.8151C89.1992 65.6072 87.7878 62.9152 87.2837 59.7389L85.5853 49.0369C85.4951 48.468 85.4411 48.0513 85.4234 47.7868C85.4257 47.4948 85.4934 47.156 85.6266 46.7704C85.7598 46.3847 86.0403 46.0851 86.4681 45.8714C86.8959 45.6577 87.489 45.4906 88.2475 45.3703C89.0061 45.2499 89.6218 45.2251 90.0947 45.2958C90.5676 45.3666 90.9153 45.5666 91.1376 45.8958C91.5086 46.3958 91.7693 47.1199 91.9198 48.068L93.6125 58.7346C93.842 60.1805 94.4157 61.4988 95.3337 62.6897C95.7946 63.2969 96.4126 63.7456 97.1876 64.0357C97.9627 64.3258 98.8361 64.3938 99.808 64.2395C101.538 63.9649 102.729 63.1199 103.379 61.7045C104.029 60.2891 104.22 58.74 103.953 57.057L102.227 46.1772C102.08 45.2527 102.095 44.5821 102.272 44.1652ZM120.318 60.5837L131.268 58.8458C131.814 58.7593 132.22 58.7191 132.489 58.7251C132.777 58.7037 133.114 58.7595 133.499 58.8927C134.192 59.123 134.659 59.9967 134.9 61.5137C135.163 63.1729 134.879 64.2144 134.047 64.638C133.666 64.8441 133.061 65.0131 132.232 65.1447L118.152 67.3792C116.493 67.6425 115.449 67.3464 115.022 66.4908C114.82 66.1341 114.652 65.5409 114.521 64.7113L111.384 44.9427C111.192 43.7338 111.287 42.8803 111.67 42.3822C112.049 41.8604 112.866 41.4998 114.123 41.3004L128.131 39.0772C128.676 38.9907 129.083 38.9505 129.351 38.9565C129.64 38.935 129.977 38.9909 130.362 39.1241C131.055 39.3544 131.522 40.2281 131.762 41.7451C132.026 43.4043 131.741 44.4457 130.909 44.8694C130.529 45.0755 129.924 45.2444 129.094 45.3761L118.179 47.1084L118.749 50.6994L125.789 49.5822C126.334 49.4957 126.741 49.4554 127.009 49.4615C127.297 49.44 127.634 49.4959 128.02 49.6291C128.712 49.8594 129.179 50.733 129.42 52.2501C129.683 53.9093 129.387 54.9526 128.531 55.38C128.151 55.5862 127.546 55.7551 126.716 55.8867L119.748 56.9927L120.318 60.5837ZM137.506 60.5532C136.77 59.8925 136.354 59.2659 136.26 58.6733C136.162 58.057 136.544 57.1702 137.405 56.0129C137.908 55.35 138.491 54.9659 139.154 54.8606C139.818 54.7552 140.837 55.2011 142.21 56.1982C142.606 56.5485 143.142 56.8644 143.818 57.1458C144.491 57.4036 145.088 57.4911 145.609 57.4083C147.814 57.0585 148.773 55.9828 148.487 54.1814C148.401 53.6362 148.021 53.2347 147.348 52.977C146.696 52.6918 145.906 52.5377 144.979 52.5147C144.052 52.4917 143.038 52.3852 141.939 52.1952C140.836 51.9814 139.794 51.6971 138.815 51.3423C137.835 50.9875 136.952 50.3257 136.167 49.3568C135.401 48.3605 134.898 47.1038 134.657 45.5868C134.326 43.5009 134.809 41.5654 136.105 39.7801C137.421 37.9674 139.418 36.8485 142.097 36.4235C143.519 36.1978 144.841 36.1824 146.063 36.3773C147.304 36.5448 148.18 36.7824 148.691 37.0902L149.687 37.6247C150.531 38.1955 150.99 38.7179 151.066 39.1919C151.141 39.666 150.96 40.363 150.523 41.2829C149.905 42.596 149.169 43.3202 148.316 43.4556C147.818 43.5346 147.164 43.3954 146.354 43.0379C146.276 43.0018 146.115 42.9059 145.871 42.7501C145.651 42.5906 145.449 42.4647 145.265 42.3725C144.718 42.1434 144.053 42.0909 143.271 42.215C142.513 42.3354 141.903 42.6266 141.442 43.0886C141 43.5231 140.832 44.0723 140.937 44.7359C141.039 45.3759 141.418 45.8504 142.075 46.1593C142.755 46.4645 143.557 46.6167 144.48 46.6159C145.403 46.6152 146.423 46.6843 147.538 46.8232C148.65 46.9383 149.69 47.1378 150.659 47.4215C151.627 47.7052 152.492 48.3334 153.254 49.306C154.036 50.2511 154.549 51.494 154.793 53.0348C155.038 54.5755 154.946 55.9873 154.518 57.2703C154.086 58.5296 153.423 59.5582 152.529 60.3562C150.808 61.9172 148.858 62.8707 146.677 63.2168C145.563 63.3936 144.488 63.4306 143.451 63.3278C142.41 63.2014 141.549 62.9856 140.869 62.6804C139.493 62.1213 138.499 61.5257 137.888 60.8936L137.506 60.5532ZM158.235 57.2636C157.498 56.6029 157.083 55.9762 156.989 55.3837C156.891 54.7674 157.273 53.8806 158.134 52.7233C158.637 52.0604 159.22 51.6762 159.883 51.5709C160.547 51.4656 161.565 51.9115 162.939 52.9085C163.334 53.2588 163.871 53.5747 164.547 53.8562C165.22 54.1139 165.817 54.2014 166.338 54.1186C168.543 53.7688 169.502 52.6932 169.216 50.8917C169.13 50.3465 168.75 49.9451 168.077 49.6873C167.424 49.4021 166.635 49.248 165.708 49.225C164.78 49.2021 163.767 49.0955 162.668 48.9055C161.565 48.6918 160.523 48.4075 159.544 48.0527C158.564 47.6978 157.681 47.036 156.896 46.0672C156.13 45.0708 155.627 43.8142 155.386 42.2972C155.055 40.2113 155.538 38.2757 156.834 36.4905C158.15 34.6778 160.147 33.5589 162.826 33.1338C164.248 32.9081 165.57 32.8927 166.792 33.0877C168.033 33.2551 168.909 33.4928 169.42 33.8005L170.416 34.335C171.26 34.9058 171.719 35.4282 171.795 35.9023C171.87 36.3764 171.689 37.0733 171.252 37.9932C170.634 39.3063 169.898 40.0306 169.045 40.166C168.547 40.245 167.893 40.1057 167.083 39.7483C167.005 39.7122 166.844 39.6162 166.6 39.4605C166.38 39.3009 166.178 39.1751 165.993 39.0829C165.447 38.8537 164.782 38.8012 164 38.9254C163.242 39.0457 162.632 39.3369 162.17 39.7989C161.729 40.2335 161.561 40.7826 161.666 41.4463C161.768 42.0863 162.147 42.5607 162.804 42.8697C163.484 43.1748 164.286 43.327 165.209 43.3263C166.132 43.3256 167.152 43.3946 168.267 43.5335C169.379 43.6487 170.419 43.8481 171.387 44.1318C172.356 44.4155 173.221 45.0437 173.983 46.0163C174.765 46.9615 175.278 48.2044 175.522 49.7451C175.767 51.2858 175.675 52.6977 175.247 53.9807C174.815 55.2399 174.152 56.2685 173.258 57.0665C171.537 58.6275 169.587 59.581 167.406 59.9271C166.292 60.1039 165.216 60.1409 164.179 60.0382C163.139 59.9117 162.278 59.6959 161.598 59.3908C160.221 58.8316 159.228 58.236 158.617 57.6039L158.235 57.2636ZM184.508 33.338C184.421 32.7928 184.369 32.388 184.351 32.1235C184.354 31.8315 184.421 31.4927 184.554 31.1071C184.785 30.4144 185.658 29.9477 187.175 29.707C188.835 29.4437 189.888 29.7261 190.335 30.5542C190.518 30.9383 190.675 31.5452 190.806 32.3748L193.944 52.1434C194.034 52.7123 194.076 53.1309 194.07 53.3992C194.088 53.6637 194.03 53.9887 193.897 54.3744C193.666 55.067 192.793 55.5337 191.276 55.7745C189.617 56.0378 188.573 55.7417 188.146 54.8861C187.943 54.5294 187.776 53.9362 187.645 53.1066L184.508 33.338ZM194.844 28.4536L214.612 25.3163C215.371 25.1959 215.943 25.2023 216.329 25.3355C216.711 25.445 216.991 25.68 217.17 26.0405C217.348 26.4009 217.486 26.8893 217.584 27.5056C217.682 28.1218 217.702 28.629 217.644 29.0271C217.581 29.4014 217.419 29.6823 217.158 29.8697C216.765 30.1507 216.177 30.3533 215.395 30.4774L208.604 31.5552L211.442 49.4393C211.529 49.9845 211.569 50.3912 211.563 50.6595C211.581 50.924 211.523 51.2491 211.39 51.6347C211.276 51.9929 211.006 52.2788 210.578 52.4925C210.15 52.7062 209.569 52.8714 208.834 52.988C208.099 53.1046 207.496 53.1275 207.023 53.0568C206.573 52.9823 206.228 52.7941 205.985 52.4924C205.763 52.1632 205.607 51.8719 205.519 51.6187C205.45 51.3381 205.372 50.9251 205.286 50.3799L202.453 32.5313L195.626 33.6147C194.868 33.7351 194.298 33.7405 193.916 33.631C193.53 33.4978 193.248 33.251 193.069 32.8905C192.891 32.5301 192.752 32.0417 192.655 31.4254C192.557 30.8091 192.539 30.3138 192.601 29.9395C192.659 29.5414 192.819 29.2487 193.081 29.0613C193.474 28.7803 194.062 28.5777 194.844 28.4536ZM222.783 45.2338C222.945 44.7221 223.25 44.3457 223.698 44.1045C224.169 43.8596 224.914 43.6563 225.934 43.4945C226.977 43.329 227.759 43.4357 228.281 43.8146C228.826 44.1897 229.176 44.8632 229.33 45.835L229.421 46.4039C229.511 46.9728 229.555 47.4032 229.553 47.6952C229.57 47.9597 229.515 48.2966 229.385 48.706C229.115 49.4535 228.257 49.9421 226.811 50.1715C225.389 50.3972 224.405 50.3225 223.859 49.9474C223.334 49.5448 222.966 48.6798 222.755 47.3524C222.608 46.428 222.618 45.7218 222.783 45.2338ZM226.887 40.3178C226.456 40.5077 225.861 40.6629 225.102 40.7833C224.344 40.9037 223.73 40.9403 223.261 40.8933C222.792 40.8463 222.438 40.6837 222.199 40.4057C221.984 40.1238 221.835 39.8682 221.75 39.6387C221.688 39.4054 221.618 39.0399 221.539 38.5421L219.75 27.2712C219.671 26.7734 219.625 26.4041 219.611 26.1633C219.617 25.895 219.69 25.5918 219.831 25.2536C219.972 24.9153 220.258 24.6512 220.69 24.4612C221.117 24.2475 221.71 24.0805 222.469 23.9601C223.228 23.8397 223.843 23.8149 224.316 23.8857C224.785 23.9327 225.129 24.109 225.348 24.4145C225.586 24.6926 225.738 24.9601 225.803 25.2171C225.888 25.4466 225.97 25.8102 226.049 26.308L227.838 37.5789C227.917 38.0767 227.952 38.4479 227.942 38.6924C227.956 38.9332 227.892 39.2227 227.752 39.561C227.607 39.8755 227.319 40.1278 226.887 40.3178Z" fill="black"/>
<circle cx="47" cy="116" r="10" fill="#63D1B4"/>
</svg>
